# xmcd CD database file
#
# Track frame offsets:
#	150
#	18615
#	37500
#	58177
#	78000
#	98157
#	119662
#	137275
#	154522
#	176372
#
# Disc length: 2644 seconds
#
# Revision: 5
# Processed by: cddbd v1.5.2PL0 Copyright (c) Steve Scherf et al.
# Submitted via: CDex 1.70beta2
#
DISCID=6c0a520a
DTITLE=STARDUST REVUE - Best Wishes Disk2
DYEAR=1990
DGENRE=
TTITLE0=もう一度ハーバーライト
TTITLE1=心の中のFollow Wind
TTITLE2=One More Time
TTITLE3=メビウスの瞳
TTITLE4=Stay My Blue -君が恋しくて-
TTITLE5=Northern Lights -輝く君に-
TTITLE6=夏のシルエット
TTITLE7=Be My Lady
TTITLE8=Lonely Snow Bird
TTITLE9=君のキャトル・ヴァン・ディス
EXTD=YEAR: 1990
EXTT0=
EXTT1=
EXTT2=
EXTT3=
EXTT4=
EXTT5=
EXTT6=
EXTT7=
EXTT8=
EXTT9=
PLAYORDER=
